<?xml version="1.0" encoding="UTF-8" standalone="no"?>
<!DOCTYPE svg PUBLIC "-//W3C//DTD SVG 1.1//EN" "http://www.w3.org/Graphics/SVG/1.1/DTD/svg11.dtd">
<svg width="100%" height="100%" viewBox="0 0 591 591" version="1.1" xmlns="http://www.w3.org/2000/svg" xmlns:xlink="http://www.w3.org/1999/xlink" xml:space="preserve" xmlns:serif="http://www.serif.com/" style="fill-rule:evenodd;clip-rule:evenodd;stroke-linecap:round;stroke-linejoin:round;stroke-miterlimit:1.5;">
    <g>
        <g transform="matrix(-0.583069,0.812423,-0.812423,-0.583069,285.505,320.458)">
            <path d="M116.854,-38.628C110.824,-56.867 100.609,-73.442 87.026,-87.026L43.513,-43.513C50.305,-36.721 55.412,-28.434 58.427,-19.314L116.854,-38.628Z" style="fill:rgb(235,235,235);stroke:black;stroke-width:4.17px;"/>
        </g>
        <g transform="matrix(-0.400813,0.925377,-0.925377,-0.400813,288.185,319.418)">
            <path d="M116.854,-38.628C110.824,-56.867 100.609,-73.442 87.026,-87.026L43.513,-43.513C50.305,-36.721 55.412,-28.434 58.427,-19.314L116.854,-38.628Z" style="fill:rgb(235,235,235);stroke:black;stroke-width:4.13px;"/>
        </g>
        <g transform="matrix(-0.197036,0.997704,-0.997704,-0.197036,290.604,317.819)">
            <path d="M116.854,-38.628C110.824,-56.867 100.609,-73.442 87.026,-87.026L43.513,-43.513C50.305,-36.721 55.412,-28.434 58.427,-19.314L116.854,-38.628Z" style="fill:rgb(235,235,235);stroke:black;stroke-width:4.1px;"/>
        </g>
        <g transform="matrix(0.0192595,1.02539,-1.02539,0.0192595,292.645,315.727)">
            <path d="M116.854,-38.628C110.824,-56.867 100.609,-73.442 87.026,-87.026L43.513,-43.513C50.305,-36.721 55.412,-28.434 58.427,-19.314L116.854,-38.628Z" style="fill:rgb(235,235,235);stroke:black;stroke-width:4.06px;"/>
        </g>
        <g transform="matrix(0.238341,1.0064,-1.0064,0.238341,294.209,313.228)">
            <path d="M116.854,-38.628C110.824,-56.867 100.609,-73.442 87.026,-87.026L43.513,-43.513C50.305,-36.721 55.412,-28.434 58.427,-19.314L116.854,-38.628Z" style="fill:rgb(235,235,235);stroke:black;stroke-width:4.03px;"/>
        </g>
        <g transform="matrix(0.450183,0.940818,-0.940818,0.450183,295.216,310.43)">
            <path d="M116.854,-38.628C110.824,-56.867 100.609,-73.442 87.026,-87.026L43.513,-43.513C50.305,-36.721 55.412,-28.434 58.427,-19.314L116.854,-38.628Z" style="fill:rgb(235,235,235);stroke:black;stroke-width:3.99px;"/>
        </g>
        <g transform="matrix(0.644924,0.830868,-0.830868,0.644924,295.61,307.458)">
            <path d="M116.854,-38.628C110.824,-56.867 100.609,-73.442 87.026,-87.026L43.513,-43.513C50.305,-36.721 55.412,-28.434 58.427,-19.314L116.854,-38.628Z" style="fill:rgb(235,235,235);stroke:black;stroke-width:3.96px;"/>
        </g>
        <g transform="matrix(0.813319,0.680852,-0.680852,0.813319,295.362,304.445)">
            <path d="M116.854,-38.628C110.824,-56.867 100.609,-73.442 87.026,-87.026L43.513,-43.513C50.305,-36.721 55.412,-28.434 58.427,-19.314L116.854,-38.628Z" style="fill:rgb(235,235,235);stroke:black;stroke-width:3.93px;"/>
        </g>
        <g transform="matrix(0.947179,0.496987,-0.496987,0.947179,294.473,301.528)">
            <path d="M116.854,-38.628C110.824,-56.867 100.609,-73.442 87.026,-87.026L43.513,-43.513C50.305,-36.721 55.412,-28.434 58.427,-19.314L116.854,-38.628Z" style="fill:rgb(235,235,235);stroke:black;stroke-width:3.9px;"/>
        </g>
        <g transform="matrix(1.03976,0.287151,-0.287151,1.03976,292.974,298.844)">
            <path d="M116.854,-38.628C110.824,-56.867 100.609,-73.442 87.026,-87.026L43.513,-43.513C50.305,-36.721 55.412,-28.434 58.427,-19.314L116.854,-38.628Z" style="fill:rgb(235,235,235);stroke:black;stroke-width:3.86px;"/>
        </g>
        <g transform="matrix(1.08612,0.0605511,-0.0605511,1.08612,290.921,296.52)">
            <path d="M116.854,-38.628C110.824,-56.867 100.609,-73.442 87.026,-87.026L43.513,-43.513C50.305,-36.721 55.412,-28.434 58.427,-19.314L116.854,-38.628Z" style="fill:rgb(235,235,235);stroke:black;stroke-width:3.83px;"/>
        </g>
        <g transform="matrix(1.08332,-0.172679,0.172679,1.08332,288.402,294.668)">
            <path d="M116.854,-38.628C110.824,-56.867 100.609,-73.442 87.026,-87.026L43.513,-43.513C50.305,-36.721 55.412,-28.434 58.427,-19.314L116.854,-38.628Z" style="fill:rgb(235,235,235);stroke:black;stroke-width:3.8px;"/>
        </g>
        <g transform="matrix(1.03067,-0.401929,0.401929,1.03067,285.522,293.382)">
            <path d="M116.854,-38.628C110.824,-56.867 100.609,-73.442 87.026,-87.026L43.513,-43.513C50.305,-36.721 55.412,-28.434 58.427,-19.314L116.854,-38.628Z" style="fill:rgb(235,235,235);stroke:black;stroke-width:3.77px;"/>
        </g>
        <g transform="matrix(0.929742,-0.616592,0.616592,0.929742,282.409,292.731)">
            <path d="M116.854,-38.628C110.824,-56.867 100.609,-73.442 87.026,-87.026L43.513,-43.513C50.305,-36.721 55.412,-28.434 58.427,-19.314L116.854,-38.628Z" style="fill:rgb(235,235,235);stroke:black;stroke-width:3.73px;"/>
        </g>
        <g transform="matrix(0.784353,-0.806549,0.806549,0.784353,279.203,292.755)">
            <path d="M116.854,-38.628C110.824,-56.867 100.609,-73.442 87.026,-87.026L43.513,-43.513C50.305,-36.721 55.412,-28.434 58.427,-19.314L116.854,-38.628Z" style="fill:rgb(235,235,235);stroke:black;stroke-width:3.7px;"/>
        </g>
        <g transform="matrix(0.600435,-0.96265,0.96265,0.600435,276.047,293.465)">
            <path d="M116.854,-38.628C110.824,-56.867 100.609,-73.442 87.026,-87.026L43.513,-43.513C50.305,-36.721 55.412,-28.434 58.427,-19.314L116.854,-38.628Z" style="fill:rgb(235,235,235);stroke:black;stroke-width:3.67px;"/>
        </g>
        <g transform="matrix(0.385789,-1.07714,1.07714,0.385789,273.09,294.84)">
            <path d="M116.854,-38.628C110.824,-56.867 100.609,-73.442 87.026,-87.026L43.513,-43.513C50.305,-36.721 55.412,-28.434 58.427,-19.314L116.854,-38.628Z" style="fill:rgb(235,235,235);stroke:black;stroke-width:3.64px;"/>
        </g>
        <g transform="matrix(0.149763,-1.14405,1.14405,0.149763,270.469,296.827)">
            <path d="M116.854,-38.628C110.824,-56.867 100.609,-73.442 87.026,-87.026L43.513,-43.513C50.305,-36.721 55.412,-28.434 58.427,-19.314L116.854,-38.628Z" style="fill:rgb(235,235,235);stroke:black;stroke-width:3.61px;"/>
        </g>
        <g transform="matrix(-0.0971553,-1.1595,1.1595,-0.0971553,268.312,299.346)">
            <path d="M116.854,-38.628C110.824,-56.867 100.609,-73.442 87.026,-87.026L43.513,-43.513C50.305,-36.721 55.412,-28.434 58.427,-19.314L116.854,-38.628Z" style="fill:rgb(235,235,235);stroke:black;stroke-width:3.58px;"/>
        </g>
        <g transform="matrix(-0.343798,-1.1219,1.1219,-0.343798,266.725,302.29)">
            <path d="M116.854,-38.628C110.824,-56.867 100.609,-73.442 87.026,-87.026L43.513,-43.513C50.305,-36.721 55.412,-28.434 58.427,-19.314L116.854,-38.628Z" style="fill:rgb(235,235,235);stroke:black;stroke-width:3.55px;"/>
        </g>
        <g transform="matrix(-0.578821,-1.03209,1.03209,-0.578821,265.79,305.531)">
            <path d="M116.854,-38.628C110.824,-56.867 100.609,-73.442 87.026,-87.026L43.513,-43.513C50.305,-36.721 55.412,-28.434 58.427,-19.314L116.854,-38.628Z" style="fill:rgb(235,235,235);stroke:black;stroke-width:3.52px;"/>
        </g>
        <g transform="matrix(-0.791221,-0.893295,0.893295,-0.791221,265.563,308.925)">
            <path d="M116.854,-38.628C110.824,-56.867 100.609,-73.442 87.026,-87.026L43.513,-43.513C50.305,-36.721 55.412,-28.434 58.427,-19.314L116.854,-38.628Z" style="fill:rgb(235,235,235);stroke:black;stroke-width:3.49px;"/>
        </g>
        <g transform="matrix(-0.97085,-0.711077,0.711077,-0.97085,266.064,312.319)">
            <path d="M116.854,-38.628C110.824,-56.867 100.609,-73.442 87.026,-87.026L43.513,-43.513C50.305,-36.721 55.412,-28.434 58.427,-19.314L116.854,-38.628Z" style="fill:rgb(235,235,235);stroke:black;stroke-width:3.46px;"/>
        </g>
        <g transform="matrix(-1.10889,-0.493072,0.493072,-1.10889,267.285,315.556)">
            <path d="M116.854,-38.628C110.824,-56.867 100.609,-73.442 87.026,-87.026L43.513,-43.513C50.305,-36.721 55.412,-28.434 58.427,-19.314L116.854,-38.628Z" style="fill:rgb(235,235,235);stroke:black;stroke-width:3.43px;"/>
        </g>
        <g transform="matrix(-1.19829,-0.248698,0.248698,-1.19829,269.18,318.484)">
            <path d="M116.854,-38.628C110.824,-56.867 100.609,-73.442 87.026,-87.026L43.513,-43.513C50.305,-36.721 55.412,-28.434 58.427,-19.314L116.854,-38.628Z" style="fill:rgb(235,235,235);stroke:black;stroke-width:3.4px;"/>
        </g>
        <g transform="matrix(-1.23412,0.0112584,-0.0112584,-1.23412,271.675,320.965)">
            <path d="M116.854,-38.628C110.824,-56.867 100.609,-73.442 87.026,-87.026L43.513,-43.513C50.305,-36.721 55.412,-28.434 58.427,-19.314L116.854,-38.628Z" style="fill:rgb(235,235,235);stroke:black;stroke-width:3.38px;"/>
        </g>
        <g transform="matrix(-1.21382,0.27511,-0.27511,-1.21382,274.664,322.876)">
            <path d="M116.854,-38.628C110.824,-56.867 100.609,-73.442 87.026,-87.026L43.513,-43.513C50.305,-36.721 55.412,-28.434 58.427,-19.314L116.854,-38.628Z" style="fill:rgb(235,235,235);stroke:black;stroke-width:3.35px;"/>
        </g>
        <g transform="matrix(-1.13736,0.530792,-0.530792,-1.13736,278.018,324.121)">
            <path d="M116.854,-38.628C110.824,-56.867 100.609,-73.442 87.026,-87.026L43.513,-43.513C50.305,-36.721 55.412,-28.434 58.427,-19.314L116.854,-38.628Z" style="fill:rgb(235,235,235);stroke:black;stroke-width:3.32px;"/>
        </g>
        <g transform="matrix(-1.00732,0.76641,-0.76641,-1.00732,281.59,324.629)">
            <path d="M116.854,-38.628C110.824,-56.867 100.609,-73.442 87.026,-87.026L43.513,-43.513C50.305,-36.721 55.412,-28.434 58.427,-19.314L116.854,-38.628Z" style="fill:rgb(235,235,235);stroke:black;stroke-width:3.29px;"/>
        </g>
        <g transform="matrix(-0.828754,0.970792,-0.970792,-0.828754,285.219,324.366)">
            <path d="M116.854,-38.628C110.824,-56.867 100.609,-73.442 87.026,-87.026L43.513,-43.513C50.305,-36.721 55.412,-28.434 58.427,-19.314L116.854,-38.628Z" style="fill:rgb(235,235,235);stroke:black;stroke-width:3.26px;"/>
        </g>
        <g transform="matrix(-0.609056,1.13401,-1.13401,-0.609056,288.739,323.33)">
            <path d="M116.854,-38.628C110.824,-56.867 100.609,-73.442 87.026,-87.026L43.513,-43.513C50.305,-36.721 55.412,-28.434 58.427,-19.314L116.854,-38.628Z" style="fill:rgb(235,235,235);stroke:black;stroke-width:3.24px;"/>
        </g>
        <g transform="matrix(-0.357627,1.24786,-1.24786,-0.357627,291.986,321.557)">
            <path d="M116.854,-38.628C110.824,-56.867 100.609,-73.442 87.026,-87.026L43.513,-43.513C50.305,-36.721 55.412,-28.434 58.427,-19.314L116.854,-38.628Z" style="fill:rgb(235,235,235);stroke:black;stroke-width:3.21px;"/>
        </g>
        <g transform="matrix(-0.0854873,1.30627,-1.30627,-0.0854873,294.807,319.114)">
            <path d="M116.854,-38.628C110.824,-56.867 100.609,-73.442 87.026,-87.026L43.513,-43.513C50.305,-36.721 55.412,-28.434 58.427,-19.314L116.854,-38.628Z" style="fill:rgb(235,235,235);stroke:black;stroke-width:3.18px;"/>
        </g>
        <g transform="matrix(0.195202,1.30562,-1.30562,0.195202,297.065,316.104)">
            <path d="M116.854,-38.628C110.824,-56.867 100.609,-73.442 87.026,-87.026L43.513,-43.513C50.305,-36.721 55.412,-28.434 58.427,-19.314L116.854,-38.628Z" style="fill:rgb(235,235,235);stroke:black;stroke-width:3.16px;"/>
        </g>
        <g transform="matrix(0.471681,1.24493,-1.24493,0.471681,298.646,312.654)">
            <path d="M116.854,-38.628C110.824,-56.867 100.609,-73.442 87.026,-87.026L43.513,-43.513C50.305,-36.721 55.412,-28.434 58.427,-19.314L116.854,-38.628Z" style="fill:rgb(235,235,235);stroke:black;stroke-width:3.13px;"/>
        </g>
        <g transform="matrix(0.731168,1.12597,-1.12597,0.731168,299.465,308.916)">
            <path d="M116.854,-38.628C110.824,-56.867 100.609,-73.442 87.026,-87.026L43.513,-43.513C50.305,-36.721 55.412,-28.434 58.427,-19.314L116.854,-38.628Z" style="fill:rgb(235,235,235);stroke:black;stroke-width:3.1px;"/>
        </g>
        <g transform="matrix(0.961443,0.953223,-0.953223,0.961443,299.474,305.056)">
            <path d="M116.854,-38.628C110.824,-56.867 100.609,-73.442 87.026,-87.026L43.513,-43.513C50.305,-36.721 55.412,-28.434 58.427,-19.314L116.854,-38.628Z" style="fill:rgb(235,235,235);stroke:black;stroke-width:3.08px;"/>
        </g>
        <g transform="matrix(1.15142,0.733719,-0.733719,1.15142,298.656,301.251)">
            <path d="M116.854,-38.628C110.824,-56.867 100.609,-73.442 87.026,-87.026L43.513,-43.513C50.305,-36.721 55.412,-28.434 58.427,-19.314L116.854,-38.628Z" style="fill:rgb(235,235,235);stroke:black;stroke-width:3.05px;"/>
        </g>
        <g transform="matrix(1.29169,0.476757,-0.476757,1.29169,297.036,297.676)">
            <path d="M116.854,-38.628C110.824,-56.867 100.609,-73.442 87.026,-87.026L43.513,-43.513C50.305,-36.721 55.412,-28.434 58.427,-19.314L116.854,-38.628Z" style="fill:rgb(235,235,235);stroke:black;stroke-width:3.03px;"/>
        </g>
        <g transform="matrix(1.37495,0.193513,-0.193513,1.37495,294.675,294.5)">
            <path d="M116.854,-38.628C110.824,-56.867 100.609,-73.442 87.026,-87.026L43.513,-43.513C50.305,-36.721 55.412,-28.434 58.427,-19.314L116.854,-38.628Z" style="fill:rgb(235,235,235);stroke:black;stroke-width:3px;"/>
        </g>
        <g transform="matrix(1.39641,-0.103435,0.103435,1.39641,291.669,291.874)">
            <path d="M116.854,-38.628C110.824,-56.867 100.609,-73.442 87.026,-87.026L43.513,-43.513C50.305,-36.721 55.412,-28.434 58.427,-19.314L116.854,-38.628Z" style="fill:rgb(235,235,235);stroke:black;stroke-width:2.98px;"/>
        </g>
        <g transform="matrix(1.35404,-0.400669,0.400669,1.35404,288.144,289.93)">
            <path d="M116.854,-38.628C110.824,-56.867 100.609,-73.442 87.026,-87.026L43.513,-43.513C50.305,-36.721 55.412,-28.434 58.427,-19.314L116.854,-38.628Z" style="fill:rgb(235,235,235);stroke:black;stroke-width:2.95px;"/>
        </g>
        <g transform="matrix(1.24869,-0.684527,0.684527,1.24869,284.255,288.768)">
            <path d="M116.854,-38.628C110.824,-56.867 100.609,-73.442 87.026,-87.026L43.513,-43.513C50.305,-36.721 55.412,-28.434 58.427,-19.314L116.854,-38.628Z" style="fill:rgb(235,235,235);stroke:black;stroke-width:2.93px;"/>
        </g>
        <g transform="matrix(1.08414,-0.941731,0.941731,1.08414,280.174,288.455)">
            <path d="M116.854,-38.628C110.824,-56.867 100.609,-73.442 87.026,-87.026L43.513,-43.513C50.305,-36.721 55.412,-28.434 58.427,-19.314L116.854,-38.628Z" style="fill:rgb(235,235,235);stroke:black;stroke-width:2.9px;"/>
        </g>
        <g transform="matrix(0.866955,-1.16,1.16,0.866955,276.085,289.019)">
            <path d="M116.854,-38.628C110.824,-56.867 100.609,-73.442 87.026,-87.026L43.513,-43.513C50.305,-36.721 55.412,-28.434 58.427,-19.314L116.854,-38.628Z" style="fill:rgb(235,235,235);stroke:black;stroke-width:2.88px;"/>
        </g>
        <g transform="matrix(0.606225,-1.32865,1.32865,0.606225,272.175,290.45)">
            <path d="M116.854,-38.628C110.824,-56.867 100.609,-73.442 87.026,-87.026L43.513,-43.513C50.305,-36.721 55.412,-28.434 58.427,-19.314L116.854,-38.628Z" style="fill:rgb(235,235,235);stroke:black;stroke-width:2.85px;"/>
        </g>
        <g transform="matrix(0.313197,-1.43907,1.43907,0.313197,268.629,292.697)">
            <path d="M116.854,-38.628C110.824,-56.867 100.609,-73.442 87.026,-87.026L43.513,-43.513C50.305,-36.721 55.412,-28.434 58.427,-19.314L116.854,-38.628Z" style="fill:rgb(235,235,235);stroke:black;stroke-width:2.83px;"/>
        </g>
        <g transform="matrix(0.000795696,-1.48521,1.48521,0.000795696,265.615,295.67)">
            <path d="M116.854,-38.628C110.824,-56.867 100.609,-73.442 87.026,-87.026L43.513,-43.513C50.305,-36.721 55.412,-28.434 58.427,-19.314L116.854,-38.628Z" style="fill:rgb(235,235,235);stroke:black;stroke-width:2.81px;"/>
        </g>
        <g transform="matrix(-0.316945,-1.46384,1.46384,-0.316945,263.28,299.244)">
            <path d="M116.854,-38.628C110.824,-56.867 100.609,-73.442 87.026,-87.026L43.513,-43.513C50.305,-36.721 55.412,-28.434 58.427,-19.314L116.854,-38.628Z" style="fill:rgb(235,235,235);stroke:black;stroke-width:2.78px;"/>
        </g>
        <g transform="matrix(-0.625508,-1.37481,1.37481,-0.625508,261.744,303.266)">
            <path d="M116.854,-38.628C110.824,-56.867 100.609,-73.442 87.026,-87.026L43.513,-43.513C50.305,-36.721 55.412,-28.434 58.427,-19.314L116.854,-38.628Z" style="fill:rgb(235,235,235);stroke:black;stroke-width:2.76px;"/>
        </g>
        <g transform="matrix(-0.91055,-1.22106,1.22106,-0.91055,261.09,307.559)">
            <path d="M116.854,-38.628C110.824,-56.867 100.609,-73.442 87.026,-87.026L43.513,-43.513C50.305,-36.721 55.412,-28.434 58.427,-19.314L116.854,-38.628Z" style="fill:rgb(235,235,235);stroke:black;stroke-width:2.74px;"/>
        </g>
        <g transform="matrix(-1.15857,-1.00856,1.00856,-1.15857,261.365,311.929)">
            <path d="M116.854,-38.628C110.824,-56.867 100.609,-73.442 87.026,-87.026L43.513,-43.513C50.305,-36.721 55.412,-28.434 58.427,-19.314L116.854,-38.628Z" style="fill:rgb(235,235,235);stroke:black;stroke-width:2.71px;"/>
        </g>
        <g transform="matrix(-1.35753,-0.746086,0.746086,-1.35753,262.57,316.177)">
            <path d="M116.854,-38.628C110.824,-56.867 100.609,-73.442 87.026,-87.026L43.513,-43.513C50.305,-36.721 55.412,-28.434 58.427,-19.314L116.854,-38.628Z" style="fill:rgb(235,235,235);stroke:black;stroke-width:2.69px;"/>
        </g>
        <g transform="matrix(-1.49745,-0.444852,0.444852,-1.49745,264.667,320.105)">
            <path d="M116.854,-38.628C110.824,-56.867 100.609,-73.442 87.026,-87.026L43.513,-43.513C50.305,-36.721 55.412,-28.434 58.427,-19.314L116.854,-38.628Z" style="fill:rgb(235,235,235);stroke:black;stroke-width:2.67px;"/>
        </g>
        <g transform="matrix(-1.57091,-0.118053,0.118053,-1.57091,267.573,323.528)">
            <path d="M116.854,-38.628C110.824,-56.867 100.609,-73.442 87.026,-87.026L43.513,-43.513C50.305,-36.721 55.412,-28.434 58.427,-19.314L116.854,-38.628Z" style="fill:rgb(235,235,235);stroke:black;stroke-width:2.64px;"/>
        </g>
        <g transform="matrix(-1.57338,0.219721,-0.219721,-1.57338,271.17,326.28)">
            <path d="M116.854,-38.628C110.824,-56.867 100.609,-73.442 87.026,-87.026L43.513,-43.513C50.305,-36.721 55.412,-28.434 58.427,-19.314L116.854,-38.628Z" style="fill:rgb(235,235,235);stroke:black;stroke-width:2.62px;"/>
        </g>
        <g transform="matrix(-1.50356,0.553127,-0.553127,-1.50356,275.303,328.222)">
            <path d="M116.854,-38.628C110.824,-56.867 100.609,-73.442 87.026,-87.026L43.513,-43.513C50.305,-36.721 55.412,-28.434 58.427,-19.314L116.854,-38.628Z" style="fill:rgb(235,235,235);stroke:black;stroke-width:2.6px;"/>
        </g>
        <g transform="matrix(-1.36343,0.866762,-0.866762,-1.36343,279.792,329.252)">
            <path d="M116.854,-38.628C110.824,-56.867 100.609,-73.442 87.026,-87.026L43.513,-43.513C50.305,-36.721 55.412,-28.434 58.427,-19.314L116.854,-38.628Z" style="fill:rgb(235,235,235);stroke:black;stroke-width:2.58px;"/>
        </g>
        <g transform="matrix(-1.15823,1.14587,-1.14587,-1.15823,284.435,329.306)">
            <path d="M116.854,-38.628C110.824,-56.867 100.609,-73.442 87.026,-87.026L43.513,-43.513C50.305,-36.721 55.412,-28.434 58.427,-19.314L116.854,-38.628Z" style="fill:rgb(235,235,235);stroke:black;stroke-width:2.56px;"/>
        </g>
        <g transform="matrix(-0.896301,1.37703,-1.37703,-0.896301,289.024,328.367)">
            <path d="M116.854,-38.628C110.824,-56.867 100.609,-73.442 87.026,-87.026L43.513,-43.513C50.305,-36.721 55.412,-28.434 58.427,-19.314L116.854,-38.628Z" style="fill:rgb(235,235,235);stroke:black;stroke-width:2.54px;"/>
        </g>
        <g transform="matrix(-0.588717,1.54881,-1.54881,-0.588717,293.344,326.459)">
            <path d="M116.854,-38.628C110.824,-56.867 100.609,-73.442 87.026,-87.026L43.513,-43.513C50.305,-36.721 55.412,-28.434 58.427,-19.314L116.854,-38.628Z" style="fill:rgb(235,235,235);stroke:black;stroke-width:2.51px;"/>
        </g>
        <g transform="matrix(-0.248844,1.6523,-1.6523,-0.248844,297.195,323.655)">
            <path d="M116.854,-38.628C110.824,-56.867 100.609,-73.442 87.026,-87.026L43.513,-43.513C50.305,-36.721 55.412,-28.434 58.427,-19.314L116.854,-38.628Z" style="fill:rgb(235,235,235);stroke:black;stroke-width:2.49px;"/>
        </g>
        <g transform="matrix(0.108239,1.68157,-1.68157,0.108239,300.389,320.068)">
            <path d="M116.854,-38.628C110.824,-56.867 100.609,-73.442 87.026,-87.026L43.513,-43.513C50.305,-36.721 55.412,-28.434 58.427,-19.314L116.854,-38.628Z" style="fill:rgb(235,235,235);stroke:black;stroke-width:2.47px;"/>
        </g>
        <g transform="matrix(0.466407,1.63403,-1.63403,0.466407,302.769,315.849)">
            <path d="M116.854,-38.628C110.824,-56.867 100.609,-73.442 87.026,-87.026L43.513,-43.513C50.305,-36.721 55.412,-28.434 58.427,-19.314L116.854,-38.628Z" style="fill:rgb(235,235,235);stroke:black;stroke-width:2.45px;"/>
        </g>
        <g transform="matrix(0.809211,1.51056,-1.51056,0.809211,304.213,311.183)">
            <path d="M116.854,-38.628C110.824,-56.867 100.609,-73.442 87.026,-87.026L43.513,-43.513C50.305,-36.721 55.412,-28.434 58.427,-19.314L116.854,-38.628Z" style="fill:rgb(235,235,235);stroke:black;stroke-width:2.43px;"/>
        </g>
        <g transform="matrix(1.12063,1.31554,-1.31554,1.12063,304.637,306.275)">
            <path d="M116.854,-38.628C110.824,-56.867 100.609,-73.442 87.026,-87.026L43.513,-43.513C50.305,-36.721 55.412,-28.434 58.427,-19.314L116.854,-38.628Z" style="fill:rgb(235,235,235);stroke:black;stroke-width:2.41px;"/>
        </g>
        <g transform="matrix(1.38581,1.05673,-1.05673,1.38581,304.005,301.348)">
            <path d="M116.854,-38.628C110.824,-56.867 100.609,-73.442 87.026,-87.026L43.513,-43.513C50.305,-36.721 55.412,-28.434 58.427,-19.314L116.854,-38.628Z" style="fill:rgb(235,235,235);stroke:black;stroke-width:2.39px;"/>
        </g>
        <g transform="matrix(1.59178,0.744941,-0.744941,1.59178,302.329,296.627)">
            <path d="M116.854,-38.628C110.824,-56.867 100.609,-73.442 87.026,-87.026L43.513,-43.513C50.305,-36.721 55.412,-28.434 58.427,-19.314L116.854,-38.628Z" style="fill:rgb(235,235,235);stroke:black;stroke-width:2.37px;"/>
        </g>
        <g transform="matrix(1.72807,0.39361,-0.39361,1.72807,299.667,292.333)">
            <path d="M116.854,-38.628C110.824,-56.867 100.609,-73.442 87.026,-87.026L43.513,-43.513C50.305,-36.721 55.412,-28.434 58.427,-19.314L116.854,-38.628Z" style="fill:rgb(235,235,235);stroke:black;stroke-width:2.35px;"/>
        </g>
        <g transform="matrix(1.78721,0.0182192,-0.0182192,1.78721,296.124,288.671)">
            <path d="M116.854,-38.628C110.824,-56.867 100.609,-73.442 87.026,-87.026L43.513,-43.513C50.305,-36.721 55.412,-28.434 58.427,-19.314L116.854,-38.628Z" style="fill:rgb(235,235,235);stroke:black;stroke-width:2.33px;"/>
        </g>
        <g transform="matrix(1.76519,-0.364382,0.364382,1.76519,291.85,285.82)">
            <path d="M116.854,-38.628C110.824,-56.867 100.609,-73.442 87.026,-87.026L43.513,-43.513C50.305,-36.721 55.412,-28.434 58.427,-19.314L116.854,-38.628Z" style="fill:rgb(235,235,235);stroke:black;stroke-width:2.31px;"/>
        </g>
        <g transform="matrix(1.66527,-0.738331,0.738331,1.66527,287.01,284.31)">
            <path d="M116.854,-38.628C110.824,-56.867 100.609,-73.442 87.026,-87.026L43.513,-43.513C50.305,-36.721 55.412,-28.434 58.427,-19.314L116.854,-38.628Z" style="fill:rgb(235,235,235);stroke:black;stroke-width:2.29px;"/>
        </g>
        <g transform="matrix(1.4864,-1.08624,1.08624,1.4864,281.906,283.857)">
            <path d="M116.854,-38.628C110.824,-56.867 100.609,-73.442 87.026,-87.026L43.513,-43.513C50.305,-36.721 55.412,-28.434 58.427,-19.314L116.854,-38.628Z" style="fill:rgb(235,235,235);stroke:black;stroke-width:2.26px;"/>
        </g>
        <g transform="matrix(-0.583069,0.812423,-0.812423,-0.583069,285.505,320.458)">
            <path d="M116.854,-38.628C110.824,-56.867 100.609,-73.442 87.026,-87.026L43.513,-43.513C50.305,-36.721 55.412,-28.434 58.427,-19.314L116.854,-38.628Z" style="fill:rgb(235,235,235);stroke:black;stroke-width:4.17px;"/>
        </g>
        <g transform="matrix(-0.400813,0.925377,-0.925377,-0.400813,288.185,319.418)">
            <path d="M116.854,-38.628C110.824,-56.867 100.609,-73.442 87.026,-87.026L43.513,-43.513C50.305,-36.721 55.412,-28.434 58.427,-19.314L116.854,-38.628Z" style="fill:rgb(235,235,235);stroke:black;stroke-width:4.13px;"/>
        </g>
        <g transform="matrix(-0.197036,0.997704,-0.997704,-0.197036,290.604,317.819)">
            <path d="M116.854,-38.628C110.824,-56.867 100.609,-73.442 87.026,-87.026L43.513,-43.513C50.305,-36.721 55.412,-28.434 58.427,-19.314L116.854,-38.628Z" style="fill:rgb(235,235,235);stroke:black;stroke-width:4.1px;"/>
        </g>
        <g transform="matrix(0.0192595,1.02539,-1.02539,0.0192595,292.645,315.727)">
            <path d="M116.854,-38.628C110.824,-56.867 100.609,-73.442 87.026,-87.026L43.513,-43.513C50.305,-36.721 55.412,-28.434 58.427,-19.314L116.854,-38.628Z" style="fill:rgb(235,235,235);stroke:black;stroke-width:4.06px;"/>
        </g>
        <g transform="matrix(0.238341,1.0064,-1.0064,0.238341,294.209,313.228)">
            <path d="M116.854,-38.628C110.824,-56.867 100.609,-73.442 87.026,-87.026L43.513,-43.513C50.305,-36.721 55.412,-28.434 58.427,-19.314L116.854,-38.628Z" style="fill:rgb(235,235,235);stroke:black;stroke-width:4.03px;"/>
        </g>
        <g transform="matrix(0.450183,0.940818,-0.940818,0.450183,295.216,310.43)">
            <path d="M116.854,-38.628C110.824,-56.867 100.609,-73.442 87.026,-87.026L43.513,-43.513C50.305,-36.721 55.412,-28.434 58.427,-19.314L116.854,-38.628Z" style="fill:rgb(235,235,235);stroke:black;stroke-width:3.99px;"/>
        </g>
        <g transform="matrix(0.644924,0.830868,-0.830868,0.644924,295.61,307.458)">
            <path d="M116.854,-38.628C110.824,-56.867 100.609,-73.442 87.026,-87.026L43.513,-43.513C50.305,-36.721 55.412,-28.434 58.427,-19.314L116.854,-38.628Z" style="fill:rgb(235,235,235);stroke:black;stroke-width:3.96px;"/>
        </g>
        <g transform="matrix(0.813319,0.680852,-0.680852,0.813319,295.362,304.445)">
            <path d="M116.854,-38.628C110.824,-56.867 100.609,-73.442 87.026,-87.026L43.513,-43.513C50.305,-36.721 55.412,-28.434 58.427,-19.314L116.854,-38.628Z" style="fill:rgb(235,235,235);stroke:black;stroke-width:3.93px;"/>
        </g>
        <g transform="matrix(0.947179,0.496987,-0.496987,0.947179,294.473,301.528)">
            <path d="M116.854,-38.628C110.824,-56.867 100.609,-73.442 87.026,-87.026L43.513,-43.513C50.305,-36.721 55.412,-28.434 58.427,-19.314L116.854,-38.628Z" style="fill:rgb(235,235,235);stroke:black;stroke-width:3.9px;"/>
        </g>
        <g transform="matrix(1.03976,0.287151,-0.287151,1.03976,292.974,298.844)">
            <path d="M116.854,-38.628C110.824,-56.867 100.609,-73.442 87.026,-87.026L43.513,-43.513C50.305,-36.721 55.412,-28.434 58.427,-19.314L116.854,-38.628Z" style="fill:rgb(235,235,235);stroke:black;stroke-width:3.86px;"/>
        </g>
        <g transform="matrix(1.08612,0.0605511,-0.0605511,1.08612,290.921,296.52)">
            <path d="M116.854,-38.628C110.824,-56.867 100.609,-73.442 87.026,-87.026L43.513,-43.513C50.305,-36.721 55.412,-28.434 58.427,-19.314L116.854,-38.628Z" style="fill:rgb(235,235,235);stroke:black;stroke-width:3.83px;"/>
        </g>
        <g transform="matrix(1.08332,-0.172679,0.172679,1.08332,288.402,294.668)">
            <path d="M116.854,-38.628C110.824,-56.867 100.609,-73.442 87.026,-87.026L43.513,-43.513C50.305,-36.721 55.412,-28.434 58.427,-19.314L116.854,-38.628Z" style="fill:rgb(235,235,235);stroke:black;stroke-width:3.8px;"/>
        </g>
        <g transform="matrix(1.03067,-0.401929,0.401929,1.03067,285.522,293.382)">
            <path d="M116.854,-38.628C110.824,-56.867 100.609,-73.442 87.026,-87.026L43.513,-43.513C50.305,-36.721 55.412,-28.434 58.427,-19.314L116.854,-38.628Z" style="fill:rgb(235,235,235);stroke:black;stroke-width:3.77px;"/>
        </g>
        <g transform="matrix(0.929742,-0.616592,0.616592,0.929742,282.409,292.731)">
            <path d="M116.854,-38.628C110.824,-56.867 100.609,-73.442 87.026,-87.026L43.513,-43.513C50.305,-36.721 55.412,-28.434 58.427,-19.314L116.854,-38.628Z" style="fill:rgb(235,235,235);stroke:black;stroke-width:3.73px;"/>
        </g>
        <g transform="matrix(0.784353,-0.806549,0.806549,0.784353,279.203,292.755)">
            <path d="M116.854,-38.628C110.824,-56.867 100.609,-73.442 87.026,-87.026L43.513,-43.513C50.305,-36.721 55.412,-28.434 58.427,-19.314L116.854,-38.628Z" style="fill:rgb(235,235,235);stroke:black;stroke-width:3.7px;"/>
        </g>
        <g transform="matrix(0.600435,-0.96265,0.96265,0.600435,276.047,293.465)">
            <path d="M116.854,-38.628C110.824,-56.867 100.609,-73.442 87.026,-87.026L43.513,-43.513C50.305,-36.721 55.412,-28.434 58.427,-19.314L116.854,-38.628Z" style="fill:rgb(235,235,235);stroke:black;stroke-width:3.67px;"/>
        </g>
        <g transform="matrix(0.385789,-1.07714,1.07714,0.385789,273.09,294.84)">
            <path d="M116.854,-38.628C110.824,-56.867 100.609,-73.442 87.026,-87.026L43.513,-43.513C50.305,-36.721 55.412,-28.434 58.427,-19.314L116.854,-38.628Z" style="fill:rgb(235,235,235);stroke:black;stroke-width:3.64px;"/>
        </g>
        <g transform="matrix(0.149763,-1.14405,1.14405,0.149763,270.469,296.827)">
            <path d="M116.854,-38.628C110.824,-56.867 100.609,-73.442 87.026,-87.026L43.513,-43.513C50.305,-36.721 55.412,-28.434 58.427,-19.314L116.854,-38.628Z" style="fill:rgb(235,235,235);stroke:black;stroke-width:3.61px;"/>
        </g>
        <g transform="matrix(-0.0971553,-1.1595,1.1595,-0.0971553,268.312,299.346)">
            <path d="M116.854,-38.628C110.824,-56.867 100.609,-73.442 87.026,-87.026L43.513,-43.513C50.305,-36.721 55.412,-28.434 58.427,-19.314L116.854,-38.628Z" style="fill:rgb(235,235,235);stroke:black;stroke-width:3.58px;"/>
        </g>
        <g transform="matrix(-0.343798,-1.1219,1.1219,-0.343798,266.725,302.29)">
            <path d="M116.854,-38.628C110.824,-56.867 100.609,-73.442 87.026,-87.026L43.513,-43.513C50.305,-36.721 55.412,-28.434 58.427,-19.314L116.854,-38.628Z" style="fill:rgb(235,235,235);stroke:black;stroke-width:3.55px;"/>
        </g>
        <g transform="matrix(-0.578821,-1.03209,1.03209,-0.578821,265.79,305.531)">
            <path d="M116.854,-38.628C110.824,-56.867 100.609,-73.442 87.026,-87.026L43.513,-43.513C50.305,-36.721 55.412,-28.434 58.427,-19.314L116.854,-38.628Z" style="fill:rgb(235,235,235);stroke:black;stroke-width:3.52px;"/>
        </g>
        <g transform="matrix(-0.791221,-0.893295,0.893295,-0.791221,265.563,308.925)">
            <path d="M116.854,-38.628C110.824,-56.867 100.609,-73.442 87.026,-87.026L43.513,-43.513C50.305,-36.721 55.412,-28.434 58.427,-19.314L116.854,-38.628Z" style="fill:rgb(235,235,235);stroke:black;stroke-width:3.49px;"/>
        </g>
        <g transform="matrix(-0.97085,-0.711077,0.711077,-0.97085,266.064,312.319)">
            <path d="M116.854,-38.628C110.824,-56.867 100.609,-73.442 87.026,-87.026L43.513,-43.513C50.305,-36.721 55.412,-28.434 58.427,-19.314L116.854,-38.628Z" style="fill:rgb(235,235,235);stroke:black;stroke-width:3.46px;"/>
        </g>
        <g transform="matrix(-1.10889,-0.493072,0.493072,-1.10889,267.285,315.556)">
            <path d="M116.854,-38.628C110.824,-56.867 100.609,-73.442 87.026,-87.026L43.513,-43.513C50.305,-36.721 55.412,-28.434 58.427,-19.314L116.854,-38.628Z" style="fill:rgb(235,235,235);stroke:black;stroke-width:3.43px;"/>
        </g>
        <g transform="matrix(-1.19829,-0.248698,0.248698,-1.19829,269.18,318.484)">
            <path d="M116.854,-38.628C110.824,-56.867 100.609,-73.442 87.026,-87.026L43.513,-43.513C50.305,-36.721 55.412,-28.434 58.427,-19.314L116.854,-38.628Z" style="fill:rgb(235,235,235);stroke:black;stroke-width:3.4px;"/>
        </g>
        <g transform="matrix(-1.23412,0.0112584,-0.0112584,-1.23412,271.675,320.965)">
            <path d="M116.854,-38.628C110.824,-56.867 100.609,-73.442 87.026,-87.026L43.513,-43.513C50.305,-36.721 55.412,-28.434 58.427,-19.314L116.854,-38.628Z" style="fill:rgb(235,235,235);stroke:black;stroke-width:3.38px;"/>
        </g>
        <g transform="matrix(-1.21382,0.27511,-0.27511,-1.21382,274.664,322.876)">
            <path d="M116.854,-38.628C110.824,-56.867 100.609,-73.442 87.026,-87.026L43.513,-43.513C50.305,-36.721 55.412,-28.434 58.427,-19.314L116.854,-38.628Z" style="fill:rgb(235,235,235);stroke:black;stroke-width:3.35px;"/>
        </g>
        <g transform="matrix(-1.13736,0.530792,-0.530792,-1.13736,278.018,324.121)">
            <path d="M116.854,-38.628C110.824,-56.867 100.609,-73.442 87.026,-87.026L43.513,-43.513C50.305,-36.721 55.412,-28.434 58.427,-19.314L116.854,-38.628Z" style="fill:rgb(235,235,235);stroke:black;stroke-width:3.32px;"/>
        </g>
        <g transform="matrix(-1.00732,0.76641,-0.76641,-1.00732,281.59,324.629)">
            <path d="M116.854,-38.628C110.824,-56.867 100.609,-73.442 87.026,-87.026L43.513,-43.513C50.305,-36.721 55.412,-28.434 58.427,-19.314L116.854,-38.628Z" style="fill:rgb(235,235,235);stroke:black;stroke-width:3.29px;"/>
        </g>
        <g transform="matrix(-0.828754,0.970792,-0.970792,-0.828754,285.219,324.366)">
            <path d="M116.854,-38.628C110.824,-56.867 100.609,-73.442 87.026,-87.026L43.513,-43.513C50.305,-36.721 55.412,-28.434 58.427,-19.314L116.854,-38.628Z" style="fill:rgb(235,235,235);stroke:black;stroke-width:3.26px;"/>
        </g>
        <g transform="matrix(-0.609056,1.13401,-1.13401,-0.609056,288.739,323.33)">
            <path d="M116.854,-38.628C110.824,-56.867 100.609,-73.442 87.026,-87.026L43.513,-43.513C50.305,-36.721 55.412,-28.434 58.427,-19.314L116.854,-38.628Z" style="fill:rgb(235,235,235);stroke:black;stroke-width:3.24px;"/>
        </g>
        <g transform="matrix(-0.357627,1.24786,-1.24786,-0.357627,291.986,321.557)">
            <path d="M116.854,-38.628C110.824,-56.867 100.609,-73.442 87.026,-87.026L43.513,-43.513C50.305,-36.721 55.412,-28.434 58.427,-19.314L116.854,-38.628Z" style="fill:rgb(235,235,235);stroke:black;stroke-width:3.21px;"/>
        </g>
        <g transform="matrix(-0.0854873,1.30627,-1.30627,-0.0854873,294.807,319.114)">
            <path d="M116.854,-38.628C110.824,-56.867 100.609,-73.442 87.026,-87.026L43.513,-43.513C50.305,-36.721 55.412,-28.434 58.427,-19.314L116.854,-38.628Z" style="fill:rgb(235,235,235);stroke:black;stroke-width:3.18px;"/>
        </g>
        <g transform="matrix(0.195202,1.30562,-1.30562,0.195202,297.065,316.104)">
            <path d="M116.854,-38.628C110.824,-56.867 100.609,-73.442 87.026,-87.026L43.513,-43.513C50.305,-36.721 55.412,-28.434 58.427,-19.314L116.854,-38.628Z" style="fill:rgb(235,235,235);stroke:black;stroke-width:3.16px;"/>
        </g>
        <g transform="matrix(0.471681,1.24493,-1.24493,0.471681,298.646,312.654)">
            <path d="M116.854,-38.628C110.824,-56.867 100.609,-73.442 87.026,-87.026L43.513,-43.513C50.305,-36.721 55.412,-28.434 58.427,-19.314L116.854,-38.628Z" style="fill:rgb(235,235,235);stroke:black;stroke-width:3.13px;"/>
        </g>
        <g transform="matrix(0.731168,1.12597,-1.12597,0.731168,299.465,308.916)">
            <path d="M116.854,-38.628C110.824,-56.867 100.609,-73.442 87.026,-87.026L43.513,-43.513C50.305,-36.721 55.412,-28.434 58.427,-19.314L116.854,-38.628Z" style="fill:rgb(235,235,235);stroke:black;stroke-width:3.1px;"/>
        </g>
        <g transform="matrix(0.961443,0.953223,-0.953223,0.961443,299.474,305.056)">
            <path d="M116.854,-38.628C110.824,-56.867 100.609,-73.442 87.026,-87.026L43.513,-43.513C50.305,-36.721 55.412,-28.434 58.427,-19.314L116.854,-38.628Z" style="fill:rgb(235,235,235);stroke:black;stroke-width:3.08px;"/>
        </g>
        <g transform="matrix(1.15142,0.733719,-0.733719,1.15142,298.656,301.251)">
            <path d="M116.854,-38.628C110.824,-56.867 100.609,-73.442 87.026,-87.026L43.513,-43.513C50.305,-36.721 55.412,-28.434 58.427,-19.314L116.854,-38.628Z" style="fill:rgb(235,235,235);stroke:black;stroke-width:3.05px;"/>
        </g>
        <g transform="matrix(1.29169,0.476757,-0.476757,1.29169,297.036,297.676)">
            <path d="M116.854,-38.628C110.824,-56.867 100.609,-73.442 87.026,-87.026L43.513,-43.513C50.305,-36.721 55.412,-28.434 58.427,-19.314L116.854,-38.628Z" style="fill:rgb(235,235,235);stroke:black;stroke-width:3.03px;"/>
        </g>
        <g transform="matrix(1.37495,0.193513,-0.193513,1.37495,294.675,294.5)">
            <path d="M116.854,-38.628C110.824,-56.867 100.609,-73.442 87.026,-87.026L43.513,-43.513C50.305,-36.721 55.412,-28.434 58.427,-19.314L116.854,-38.628Z" style="fill:rgb(235,235,235);stroke:black;stroke-width:3px;"/>
        </g>
        <g transform="matrix(1.39641,-0.103435,0.103435,1.39641,291.669,291.874)">
            <path d="M116.854,-38.628C110.824,-56.867 100.609,-73.442 87.026,-87.026L43.513,-43.513C50.305,-36.721 55.412,-28.434 58.427,-19.314L116.854,-38.628Z" style="fill:rgb(235,235,235);stroke:black;stroke-width:2.98px;"/>
        </g>
        <g transform="matrix(1.35404,-0.400669,0.400669,1.35404,288.144,289.93)">
            <path d="M116.854,-38.628C110.824,-56.867 100.609,-73.442 87.026,-87.026L43.513,-43.513C50.305,-36.721 55.412,-28.434 58.427,-19.314L116.854,-38.628Z" style="fill:rgb(235,235,235);stroke:black;stroke-width:2.95px;"/>
        </g>
        <g transform="matrix(1.24869,-0.684527,0.684527,1.24869,284.255,288.768)">
            <path d="M116.854,-38.628C110.824,-56.867 100.609,-73.442 87.026,-87.026L43.513,-43.513C50.305,-36.721 55.412,-28.434 58.427,-19.314L116.854,-38.628Z" style="fill:rgb(235,235,235);stroke:black;stroke-width:2.93px;"/>
        </g>
        <g transform="matrix(1.08414,-0.941731,0.941731,1.08414,280.174,288.455)">
            <path d="M116.854,-38.628C110.824,-56.867 100.609,-73.442 87.026,-87.026L43.513,-43.513C50.305,-36.721 55.412,-28.434 58.427,-19.314L116.854,-38.628Z" style="fill:rgb(235,235,235);stroke:black;stroke-width:2.9px;"/>
        </g>
        <g transform="matrix(0.866955,-1.16,1.16,0.866955,276.085,289.019)">
            <path d="M116.854,-38.628C110.824,-56.867 100.609,-73.442 87.026,-87.026L43.513,-43.513C50.305,-36.721 55.412,-28.434 58.427,-19.314L116.854,-38.628Z" style="fill:rgb(235,235,235);stroke:black;stroke-width:2.88px;"/>
        </g>
        <g transform="matrix(0.606225,-1.32865,1.32865,0.606225,272.175,290.45)">
            <path d="M116.854,-38.628C110.824,-56.867 100.609,-73.442 87.026,-87.026L43.513,-43.513C50.305,-36.721 55.412,-28.434 58.427,-19.314L116.854,-38.628Z" style="fill:rgb(235,235,235);stroke:black;stroke-width:2.85px;"/>
        </g>
        <g transform="matrix(0.313197,-1.43907,1.43907,0.313197,268.629,292.697)">
            <path d="M116.854,-38.628C110.824,-56.867 100.609,-73.442 87.026,-87.026L43.513,-43.513C50.305,-36.721 55.412,-28.434 58.427,-19.314L116.854,-38.628Z" style="fill:rgb(235,235,235);stroke:black;stroke-width:2.83px;"/>
        </g>
        <g transform="matrix(0.000795696,-1.48521,1.48521,0.000795696,265.615,295.67)">
            <path d="M116.854,-38.628C110.824,-56.867 100.609,-73.442 87.026,-87.026L43.513,-43.513C50.305,-36.721 55.412,-28.434 58.427,-19.314L116.854,-38.628Z" style="fill:rgb(235,235,235);stroke:black;stroke-width:2.81px;"/>
        </g>
        <g transform="matrix(-0.316945,-1.46384,1.46384,-0.316945,263.28,299.244)">
            <path d="M116.854,-38.628C110.824,-56.867 100.609,-73.442 87.026,-87.026L43.513,-43.513C50.305,-36.721 55.412,-28.434 58.427,-19.314L116.854,-38.628Z" style="fill:rgb(235,235,235);stroke:black;stroke-width:2.78px;"/>
        </g>
        <g transform="matrix(-0.625508,-1.37481,1.37481,-0.625508,261.744,303.266)">
            <path d="M116.854,-38.628C110.824,-56.867 100.609,-73.442 87.026,-87.026L43.513,-43.513C50.305,-36.721 55.412,-28.434 58.427,-19.314L116.854,-38.628Z" style="fill:rgb(235,235,235);stroke:black;stroke-width:2.76px;"/>
        </g>
        <g transform="matrix(-0.91055,-1.22106,1.22106,-0.91055,261.09,307.559)">
            <path d="M116.854,-38.628C110.824,-56.867 100.609,-73.442 87.026,-87.026L43.513,-43.513C50.305,-36.721 55.412,-28.434 58.427,-19.314L116.854,-38.628Z" style="fill:rgb(235,235,235);stroke:black;stroke-width:2.74px;"/>
        </g>
        <g transform="matrix(-1.15857,-1.00856,1.00856,-1.15857,261.365,311.929)">
            <path d="M116.854,-38.628C110.824,-56.867 100.609,-73.442 87.026,-87.026L43.513,-43.513C50.305,-36.721 55.412,-28.434 58.427,-19.314L116.854,-38.628Z" style="fill:rgb(235,235,235);stroke:black;stroke-width:2.71px;"/>
        </g>
        <g transform="matrix(-1.35753,-0.746086,0.746086,-1.35753,262.57,316.177)">
            <path d="M116.854,-38.628C110.824,-56.867 100.609,-73.442 87.026,-87.026L43.513,-43.513C50.305,-36.721 55.412,-28.434 58.427,-19.314L116.854,-38.628Z" style="fill:rgb(235,235,235);stroke:black;stroke-width:2.69px;"/>
        </g>
        <g transform="matrix(-1.49745,-0.444852,0.444852,-1.49745,264.667,320.105)">
            <path d="M116.854,-38.628C110.824,-56.867 100.609,-73.442 87.026,-87.026L43.513,-43.513C50.305,-36.721 55.412,-28.434 58.427,-19.314L116.854,-38.628Z" style="fill:rgb(235,235,235);stroke:black;stroke-width:2.67px;"/>
        </g>
        <g transform="matrix(-1.57091,-0.118053,0.118053,-1.57091,267.573,323.528)">
            <path d="M116.854,-38.628C110.824,-56.867 100.609,-73.442 87.026,-87.026L43.513,-43.513C50.305,-36.721 55.412,-28.434 58.427,-19.314L116.854,-38.628Z" style="fill:rgb(235,235,235);stroke:black;stroke-width:2.64px;"/>
        </g>
        <g transform="matrix(-1.57338,0.219721,-0.219721,-1.57338,271.17,326.28)">
            <path d="M116.854,-38.628C110.824,-56.867 100.609,-73.442 87.026,-87.026L43.513,-43.513C50.305,-36.721 55.412,-28.434 58.427,-19.314L116.854,-38.628Z" style="fill:rgb(235,235,235);stroke:black;stroke-width:2.62px;"/>
        </g>
        <g transform="matrix(-1.50356,0.553127,-0.553127,-1.50356,275.303,328.222)">
            <path d="M116.854,-38.628C110.824,-56.867 100.609,-73.442 87.026,-87.026L43.513,-43.513C50.305,-36.721 55.412,-28.434 58.427,-19.314L116.854,-38.628Z" style="fill:rgb(235,235,235);stroke:black;stroke-width:2.6px;"/>
        </g>
        <g transform="matrix(-1.36343,0.866762,-0.866762,-1.36343,279.792,329.252)">
            <path d="M116.854,-38.628C110.824,-56.867 100.609,-73.442 87.026,-87.026L43.513,-43.513C50.305,-36.721 55.412,-28.434 58.427,-19.314L116.854,-38.628Z" style="fill:rgb(235,235,235);stroke:black;stroke-width:2.58px;"/>
        </g>
        <g transform="matrix(-1.15823,1.14587,-1.14587,-1.15823,284.435,329.306)">
            <path d="M116.854,-38.628C110.824,-56.867 100.609,-73.442 87.026,-87.026L43.513,-43.513C50.305,-36.721 55.412,-28.434 58.427,-19.314L116.854,-38.628Z" style="fill:rgb(235,235,235);stroke:black;stroke-width:2.56px;"/>
        </g>
        <g transform="matrix(-0.896301,1.37703,-1.37703,-0.896301,289.024,328.367)">
            <path d="M116.854,-38.628C110.824,-56.867 100.609,-73.442 87.026,-87.026L43.513,-43.513C50.305,-36.721 55.412,-28.434 58.427,-19.314L116.854,-38.628Z" style="fill:rgb(235,235,235);stroke:black;stroke-width:2.54px;"/>
        </g>
        <g transform="matrix(-0.588717,1.54881,-1.54881,-0.588717,293.344,326.459)">
            <path d="M116.854,-38.628C110.824,-56.867 100.609,-73.442 87.026,-87.026L43.513,-43.513C50.305,-36.721 55.412,-28.434 58.427,-19.314L116.854,-38.628Z" style="fill:rgb(235,235,235);stroke:black;stroke-width:2.51px;"/>
        </g>
        <g transform="matrix(-0.248844,1.6523,-1.6523,-0.248844,297.195,323.655)">
            <path d="M116.854,-38.628C110.824,-56.867 100.609,-73.442 87.026,-87.026L43.513,-43.513C50.305,-36.721 55.412,-28.434 58.427,-19.314L116.854,-38.628Z" style="fill:rgb(235,235,235);stroke:black;stroke-width:2.49px;"/>
        </g>
        <g transform="matrix(0.108239,1.68157,-1.68157,0.108239,300.389,320.068)">
            <path d="M116.854,-38.628C110.824,-56.867 100.609,-73.442 87.026,-87.026L43.513,-43.513C50.305,-36.721 55.412,-28.434 58.427,-19.314L116.854,-38.628Z" style="fill:rgb(235,235,235);stroke:black;stroke-width:2.47px;"/>
        </g>
        <g transform="matrix(0.466407,1.63403,-1.63403,0.466407,302.769,315.849)">
            <path d="M116.854,-38.628C110.824,-56.867 100.609,-73.442 87.026,-87.026L43.513,-43.513C50.305,-36.721 55.412,-28.434 58.427,-19.314L116.854,-38.628Z" style="fill:rgb(235,235,235);stroke:black;stroke-width:2.45px;"/>
        </g>
        <g transform="matrix(0.809211,1.51056,-1.51056,0.809211,304.213,311.183)">
            <path d="M116.854,-38.628C110.824,-56.867 100.609,-73.442 87.026,-87.026L43.513,-43.513C50.305,-36.721 55.412,-28.434 58.427,-19.314L116.854,-38.628Z" style="fill:rgb(235,235,235);stroke:black;stroke-width:2.43px;"/>
        </g>
        <g transform="matrix(1.12063,1.31554,-1.31554,1.12063,304.637,306.275)">
            <path d="M116.854,-38.628C110.824,-56.867 100.609,-73.442 87.026,-87.026L43.513,-43.513C50.305,-36.721 55.412,-28.434 58.427,-19.314L116.854,-38.628Z" style="fill:rgb(235,235,235);stroke:black;stroke-width:2.41px;"/>
        </g>
        <g transform="matrix(1.38581,1.05673,-1.05673,1.38581,304.005,301.348)">
            <path d="M116.854,-38.628C110.824,-56.867 100.609,-73.442 87.026,-87.026L43.513,-43.513C50.305,-36.721 55.412,-28.434 58.427,-19.314L116.854,-38.628Z" style="fill:rgb(235,235,235);stroke:black;stroke-width:2.39px;"/>
        </g>
        <g transform="matrix(1.59178,0.744941,-0.744941,1.59178,302.329,296.627)">
            <path d="M116.854,-38.628C110.824,-56.867 100.609,-73.442 87.026,-87.026L43.513,-43.513C50.305,-36.721 55.412,-28.434 58.427,-19.314L116.854,-38.628Z" style="fill:rgb(235,235,235);stroke:black;stroke-width:2.37px;"/>
        </g>
        <g transform="matrix(1.72807,0.39361,-0.39361,1.72807,299.667,292.333)">
            <path d="M116.854,-38.628C110.824,-56.867 100.609,-73.442 87.026,-87.026L43.513,-43.513C50.305,-36.721 55.412,-28.434 58.427,-19.314L116.854,-38.628Z" style="fill:rgb(235,235,235);stroke:black;stroke-width:2.35px;"/>
        </g>
        <g transform="matrix(1.78721,0.0182192,-0.0182192,1.78721,296.124,288.671)">
            <path d="M116.854,-38.628C110.824,-56.867 100.609,-73.442 87.026,-87.026L43.513,-43.513C50.305,-36.721 55.412,-28.434 58.427,-19.314L116.854,-38.628Z" style="fill:rgb(235,235,235);stroke:black;stroke-width:2.33px;"/>
        </g>
        <g transform="matrix(1.76519,-0.364382,0.364382,1.76519,291.85,285.82)">
            <path d="M116.854,-38.628C110.824,-56.867 100.609,-73.442 87.026,-87.026L43.513,-43.513C50.305,-36.721 55.412,-28.434 58.427,-19.314L116.854,-38.628Z" style="fill:rgb(235,235,235);stroke:black;stroke-width:2.31px;"/>
        </g>
        <g transform="matrix(1.66527,-0.738331,0.738331,1.66527,287.01,284.31)">
            <path d="M116.854,-38.628C110.824,-56.867 100.609,-73.442 87.026,-87.026L43.513,-43.513C50.305,-36.721 55.412,-28.434 58.427,-19.314L116.854,-38.628Z" style="fill:rgb(235,235,235);stroke:black;stroke-width:2.29px;"/>
        </g>
        <g transform="matrix(1.4864,-1.08624,1.08624,1.4864,281.906,283.857)">
            <path d="M116.854,-38.628C110.824,-56.867 100.609,-73.442 87.026,-87.026L43.513,-43.513C50.305,-36.721 55.412,-28.434 58.427,-19.314L116.854,-38.628Z" style="fill:rgb(235,235,235);stroke:black;stroke-width:2.26px;"/>
        </g>
    </g>
</svg>
